<svg width="20" height="20" viewBox="0 0 20 20" fill="none" xmlns="http://www.w3.org/2000/svg">
<g id="Camera">
<path id="Shape" d="M6.99921 10C6.99921 8.34315 8.34235 7 9.99921 7C11.6561 7 12.9992 8.34315 12.9992 10C12.9992 11.6569 11.6561 13 9.99921 13C8.34235 13 6.99921 11.6569 6.99921 10ZM6.78288 2.82643C7.03751 2.31977 7.55609 2 8.12314 2H11.8873C12.4556 2 12.975 2.32106 13.229 2.8293L13.814 3.9994H15.5039C16.8846 3.9994 18.0039 5.11869 18.0039 6.4994V14.5C18.0039 15.8807 16.8846 17 15.5039 17H4.50391C3.12319 17 2.00391 15.8807 2.00391 14.5V6.4994C2.00391 5.11868 3.1232 3.9994 4.50391 3.9994H6.19339L6.78288 2.82643ZM9.99921 6C7.79007 6 5.99921 7.79086 5.99921 10C5.99921 12.2091 7.79007 14 9.99921 14C12.2083 14 13.9992 12.2091 13.9992 10C13.9992 7.79086 12.2083 6 9.99921 6Z" fill="white"/>
</g>
</svg>
