<?xml version="1.0" standalone="no"?>
<!DOCTYPE svg PUBLIC "-//W3C//DTD SVG 20010904//EN"
 "http://www.w3.org/TR/2001/REC-SVG-20010904/DTD/svg10.dtd">
<svg version="1.0" xmlns="http://www.w3.org/2000/svg"
 width="16" height="16" viewBox="0 0 96.000000 96.000000"
 preserveAspectRatio="xMidYMid meet" fill="#666666"> 

<g transform="translate(0.000000,96.000000) scale(0.100000,-0.100000)"
 stroke="none">
<path d="M342 830 c-24 -10 -42 -46 -42 -85 0 -22 -3 -23 -90 -27 -125 -4
-124 -3 -128 -178 l-4 -140 170 0 c161 0 170 1 175 20 4 17 14 20 57 20 43 0
53 -3 57 -20 5 -19 14 -20 175 -20 l170 0 -4 140 c-4 175 -3 174 -127 178
l-89 4 -5 40 c-9 68 -20 73 -165 75 -70 2 -137 -2 -150 -7z m258 -80 l0 -30
-120 0 -120 0 0 30 0 30 120 0 120 0 0 -30z" />
<path d="M82 250 c5 -135 -29 -125 398 -125 427 0 393 -10 398 125 l4 90 -170
0 c-161 0 -170 -1 -175 -20 -4 -17 -14 -20 -57 -20 -43 0 -53 3 -57 20 -5 19
-14 20 -175 20 l-170 0 4 -90z" />
</g>
</svg>
