<svg width="60" height="60" viewBox="0 0 60 60" fill="none" xmlns="http://www.w3.org/2000/svg">
<rect width="60" height="60" rx="30" fill="#212121"/>
<path d="M38.2929 20.2929C38.6834 19.9024 39.3166 19.9024 39.7071 20.2929C40.0976 20.6834 40.0976 21.3166 39.7071 21.7071L31.4142 30L39.7071 38.2929C40.0976 38.6834 40.0976 39.3166 39.7071 39.7071C39.3166 40.0976 38.6834 40.0976 38.2929 39.7071L30 31.4142L21.7071 39.7071C21.3166 40.0976 20.6834 40.0976 20.2929 39.7071C19.9024 39.3166 19.9024 38.6834 20.2929 38.2929L28.5858 30L20.2929 21.7071C19.9024 21.3166 19.9024 20.6834 20.2929 20.2929C20.6834 19.9024 21.3166 19.9024 21.7071 20.2929L30 28.5858L38.2929 20.2929Z" fill="white"/>
</svg>
