<svg width="24" height="24" viewBox="0 0 24 24" fill="none" xmlns="http://www.w3.org/2000/svg">
<g id="icons8-menu 1">
<path id="Vector" d="M2.99959 4.49998C2.86708 4.4981 2.73552 4.52259 2.61255 4.572C2.48958 4.62141 2.37766 4.69477 2.28329 4.78782C2.18892 4.88086 2.11399 4.99173 2.06284 5.11399C2.01169 5.23625 1.98535 5.36745 1.98535 5.49998C1.98535 5.6325 2.01169 5.76371 2.06284 5.88596C2.11399 6.00822 2.18892 6.11909 2.28329 6.21214C2.37766 6.30518 2.48958 6.37854 2.61255 6.42796C2.73552 6.47737 2.86708 6.50185 2.99959 6.49998H20.9996C21.1321 6.50185 21.2637 6.47737 21.3866 6.42796C21.5096 6.37854 21.6215 6.30518 21.7159 6.21214C21.8103 6.11909 21.8852 6.00822 21.9363 5.88596C21.9875 5.76371 22.0138 5.6325 22.0138 5.49998C22.0138 5.36745 21.9875 5.23625 21.9363 5.11399C21.8852 4.99173 21.8103 4.88086 21.7159 4.78782C21.6215 4.69477 21.5096 4.62141 21.3866 4.572C21.2637 4.52259 21.1321 4.4981 20.9996 4.49998H2.99959ZM2.99959 11C2.86708 10.9981 2.73552 11.0226 2.61255 11.072C2.48958 11.1214 2.37766 11.1948 2.28329 11.2878C2.18892 11.3809 2.11399 11.4917 2.06284 11.614C2.01169 11.7362 1.98535 11.8675 1.98535 12C1.98535 12.1325 2.01169 12.2637 2.06284 12.386C2.11399 12.5082 2.18892 12.6191 2.28329 12.7121C2.37766 12.8052 2.48958 12.8785 2.61255 12.928C2.73552 12.9774 2.86708 13.0019 2.99959 13H20.9996C21.1321 13.0019 21.2637 12.9774 21.3866 12.928C21.5096 12.8785 21.6215 12.8052 21.7159 12.7121C21.8103 12.6191 21.8852 12.5082 21.9363 12.386C21.9875 12.2637 22.0138 12.1325 22.0138 12C22.0138 11.8675 21.9875 11.7362 21.9363 11.614C21.8852 11.4917 21.8103 11.3809 21.7159 11.2878C21.6215 11.1948 21.5096 11.1214 21.3866 11.072C21.2637 11.0226 21.1321 10.9981 20.9996 11H2.99959ZM2.99959 17.5C2.86708 17.4981 2.73552 17.5226 2.61255 17.572C2.48958 17.6214 2.37766 17.6948 2.28329 17.7878C2.18892 17.8809 2.11399 17.9917 2.06284 18.114C2.01169 18.2362 1.98535 18.3675 1.98535 18.5C1.98535 18.6325 2.01169 18.7637 2.06284 18.886C2.11399 19.0082 2.18892 19.1191 2.28329 19.2121C2.37766 19.3052 2.48958 19.3785 2.61255 19.428C2.73552 19.4774 2.86708 19.5019 2.99959 19.5H20.9996C21.1321 19.5019 21.2637 19.4774 21.3866 19.428C21.5096 19.3785 21.6215 19.3052 21.7159 19.2121C21.8103 19.1191 21.8852 19.0082 21.9363 18.886C21.9875 18.7637 22.0138 18.6325 22.0138 18.5C22.0138 18.3675 21.9875 18.2362 21.9363 18.114C21.8852 17.9917 21.8103 17.8809 21.7159 17.7878C21.6215 17.6948 21.5096 17.6214 21.3866 17.572C21.2637 17.5226 21.1321 17.4981 20.9996 17.5H2.99959Z" fill="#212121"/>
</g>
</svg>
