<svg width="32" height="32" viewBox="0 0 32 32" fill="none" xmlns="http://www.w3.org/2000/svg">
<circle cx="16" cy="16" r="16" fill="#FF5680"/>
<g clip-path="url(#clip0_414_4251)">
<path d="M8.83496 8.16388C8.65904 8.07592 8.4479 8.09926 8.29545 8.22352C8.143 8.34779 8.07755 8.54988 8.12823 8.73992L9.62631 14.3577C9.67687 14.5473 9.83366 14.6898 10.0272 14.7221L16.8817 15.8645C17.1603 15.9109 17.1603 16.3113 16.8817 16.3577L10.0272 17.5001C9.83367 17.5324 9.67687 17.6749 9.62631 17.8645L8.12823 23.4823C8.07755 23.6723 8.143 23.8744 8.29545 23.9987C8.4479 24.1229 8.65904 24.1463 8.83496 24.0583L23.835 16.5583C24.0043 16.4736 24.1113 16.3005 24.1113 16.1111C24.1113 15.9217 24.0043 15.7486 23.835 15.6639L8.83496 8.16388Z" fill="white"/>
</g>
<defs>
<clipPath id="clip0_414_4251">
<rect width="17.7778" height="17.7778" fill="white" transform="translate(7.11133 7.11108)"/>
</clipPath>
</defs>
</svg>
